<svg id="Layer_1" data-name="Layer 1" xmlns="http://www.w3.org/2000/svg" viewBox="0 0 2132.99 781.62"><defs><style>.cls-1{fill:#231f20;}.cls-2{fill:#fff;}</style></defs><path class="cls-1" d="M1514.78,777.12a74.88,74.88,0,0,1-74.8-74.8V512.93H1103.67l7.25-7.61c1.69-1.78,169.84-178.2,212.58-222.82,7.74-8.1,9.45-9.88,10.07-10.45h0a246.05,246.05,0,0,0,17.58-19,186.12,186.12,0,0,1,16-16.18,83.53,83.53,0,0,0,15.13-18.6,77.41,77.41,0,0,0,10.94-39.53c0-45.2-39.48-82-88-82-1.54,0-3,0-4.58.1h-.51c-.75,0-1.49,0-2.35,0-53.83,0-97.62,42.24-97.62,94.16a91.07,91.07,0,0,0,6.93,35c6.82,16.34-17.29,51.44-22.2,58.3l-3.63,5.09-3.67-5.06a187.49,187.49,0,0,1-33.76-86.5,175.51,175.51,0,0,1,18-101.07,138,138,0,0,1,60.36-60.13c27.5-13.9,55.86-20.94,84.28-20.94A165.58,165.58,0,0,1,1440,83.18V4.5h79.3V87.32a88,88,0,0,1,23.4-3.18H1895.5v4.5c0,40.16-25.64,67.14-63.79,67.14H1533.12a23,23,0,0,0-13.84,4.86v92.09L2068.9,416.36c18.6,5.53,33.09,13.77,43,24.5,11,11.82,16.54,26.66,16.54,44.13a83.06,83.06,0,0,1-3.67,24.36l-1.31,4.3-349-106.28c-4.82,28.26-17.17,54.06-35.1,73.12-19.45,20.66-44.25,32-69.84,32H1533a53.38,53.38,0,0,1-13.67-1.78V777.12ZM1397.94,319.73,1297.33,420.39a6.77,6.77,0,0,0,4.81,11.56H1440V277.74Zm281.15,108.19c15.83,0,29.27-18.37,29.92-40.49l-189.73-57.82v98.31Z"/><path class="cls-2" d="M1514.78,9V93.45a83.65,83.65,0,0,1,27.9-4.81H1891c0,40.77-26.57,62.64-59.29,62.64H1533.12a27.88,27.88,0,0,0-18.34,7.21v97.59l552.83,164.6C2101.9,430.86,2124,451.05,2124,485a78.54,78.54,0,0,1-3.47,23L1770.87,401.55C1762.64,461.84,1720.25,508,1669.58,508H1533a50.11,50.11,0,0,1-18.17-3.46V772.62a70.31,70.31,0,0,1-70.3-70.3V508.43H1114.17s169.35-177.68,212.58-222.82c6-6.26,9.56-10,9.9-10.29A251,251,0,0,0,1354.58,256a181.72,181.72,0,0,1,15.62-15.78,88.46,88.46,0,0,0,16-19.61,81.51,81.51,0,0,0,11.57-41.83c0-47.76-41.44-86.47-92.5-86.47-1.62,0-3.19.06-4.75.12h-.06c-.9-.06-1.73-.06-2.63-.06-56.37,0-102.12,44.18-102.12,98.66a95.84,95.84,0,0,0,7.27,36.74c6.21,14.88-21.7,54-21.7,54-33.84-46.59-48.82-117.5-15.44-182.88a133.18,133.18,0,0,1,58.39-58.17c27.94-14.11,55.84-20.45,82.25-20.45a161.18,161.18,0,0,1,138,77.78V9h70.3M1302.14,436.45h142.34V265.14c-1,1.57-1.9,3.14-2.91,4.65l-46.81,46.75L1294.15,417.21a11.27,11.27,0,0,0,8,19.24m212.64-4h164.31c19,0,34.45-21,34.45-46.7V384.1l-198.76-60.57V432.42m9-432.42h-88.3V70.34a170,170,0,0,0-129-59.14c-29.13,0-58.17,7.2-86.31,21.42a142.6,142.6,0,0,0-62.34,62.11,179.91,179.91,0,0,0-18.41,103.65A192,192,0,0,0,1174,287l7.34,10.11,7.26-10.17a224.59,224.59,0,0,0,13.8-22.4c9.83-18.44,12.65-31.24,8.88-40.27a86.58,86.58,0,0,1-6.57-33.27c0-49.44,41.77-89.66,93.12-89.66.81,0,1.45,0,2.07,0l.28,0h.66c1.52,0,3-.11,4.43-.11,46,0,83.5,34.75,83.5,77.47A72.9,72.9,0,0,1,1378.41,216a79.05,79.05,0,0,1-14.31,17.59,192.32,192.32,0,0,0-16.38,16.57,238.57,238.57,0,0,1-17.09,18.5c-.59.53-1.79,1.76-10.37,10.75-42.75,44.63-210.91,221.06-212.6,222.84l-14.5,15.21h342.32V702.32a79.38,79.38,0,0,0,79.3,79.3h9V516.3a57.56,57.56,0,0,0,9.17.73h136.63c26.84,0,52.81-11.88,73.12-33.46,17.46-18.56,29.8-43.27,35.32-70.43l339.88,103.5,8.59,2.62,2.63-8.59A87.32,87.32,0,0,0,2133,485c0-24.77-10.9-57.53-62.82-72.94L1523.78,249.37V163a17.74,17.74,0,0,1,9.34-2.73h298.59c18.91,0,36-6.61,48.23-18.62,13.12-12.92,20.06-31.25,20.06-53v-9H1542.68a92.44,92.44,0,0,0-18.9,2V0ZM1302.14,427.45A2.13,2.13,0,0,1,1300,426a2.09,2.09,0,0,1,.49-2.47L1401.12,322.9l34.36-34.31V427.45Zm221.64-4V335.68l180.53,55c-1.7,18.18-12.56,32.72-25.22,32.72Z"/></svg>